<?xml version="1.0" encoding="utf-8"?>
<svg version="1.1" xmlns:xlink="http://www.w3.org/1999/xlink" width="21px" height="19px" xmlns="http://www.w3.org/2000/svg">
  <g transform="matrix(1 0 0 1 -1141 -77 )">
    <path d="M 15.1063701923077 6.65269886363633  C 15.2662259615385 6.48177083333331  15.3461538461539 6.27935606060604  15.3461538461539 6.04545454545453  C 15.3461538461539 5.81155303030302  15.2662259615385 5.60913825757576  15.1063701923077 5.43821022727274  C 14.946514423077 5.26728219696972  14.7572115384615 5.18181818181821  14.5384615384616 5.18181818181821  L 12.9230769230769 5.18181818181821  L 12.9230769230769 3.45454545454547  C 12.9230769230769 3.22064393939396  12.8431490384615 3.01822916666669  12.6832932692308 2.84730113636367  C 12.5234375000001 2.67637310606057  12.3341346153846 2.59090909090906  12.1153846153846 2.59090909090906  C 11.8966346153846 2.59090909090906  11.7073317307692 2.67637310606057  11.5474759615384 2.84730113636367  C 11.3876201923076 3.01822916666669  11.3076923076923 3.22064393939396  11.3076923076923 3.45454545454547  L 11.3076923076923 5.18181818181821  L 9.69230769230768 5.18181818181821  C 9.47355769230771 5.18181818181821  9.28425480769243 5.26728219696972  9.1243990384616 5.43821022727274  C 8.96454326923077 5.60913825757576  8.88461538461536 5.81155303030302  8.88461538461536 6.04545454545453  C 8.88461538461536 6.27935606060604  8.96454326923077 6.48177083333331  9.1243990384616 6.65269886363633  C 9.28425480769243 6.82362689393943  9.47355769230771 6.90909090909094  9.69230769230768 6.90909090909094  L 11.3076923076923 6.90909090909094  L 11.3076923076923 8.63636363636367  C 11.3076923076923 8.87026515151518  11.3876201923076 9.07267992424245  11.5474759615384 9.24360795454547  C 11.7073317307692 9.41453598484848  11.8966346153846 9.5  12.1153846153846 9.5  C 12.3341346153846 9.5  12.5234375000001 9.41453598484848  12.6832932692308 9.24360795454547  C 12.8431490384615 9.07267992424245  12.9230769230769 8.87026515151518  12.9230769230769 8.63636363636367  L 12.9230769230769 6.90909090909094  L 14.5384615384616 6.90909090909094  C 14.7572115384615 6.90909090909094  14.946514423077 6.82362689393943  15.1063701923077 6.65269886363633  Z M 7.60366586538464 16.0514914772727  C 7.91917067307688 16.3888494318182  8.07692307692312 16.795928030303  8.07692307692312 17.2727272727273  C 8.07692307692312 17.7495265151515  7.91917067307688 18.1566051136363  7.60366586538464 18.4939630681818  C 7.28816105769232 18.8313210227273  6.90745192307702 19  6.4615384615384 19  C 6.01562499999994 19  5.63491586538464 18.8313210227273  5.31941105769232 18.4939630681818  C 5.00390625 18.1566051136363  4.84615384615392 17.7495265151515  4.84615384615392 17.2727272727273  C 4.84615384615392 16.795928030303  5.00390625 16.3888494318182  5.31941105769232 16.0514914772727  C 5.63491586538464 15.7141335227273  6.01562499999994 15.5454545454545  6.4615384615384 15.5454545454545  C 6.90745192307702 15.5454545454545  7.28816105769232 15.7141335227273  7.60366586538464 16.0514914772727  Z M 18.9113581730769 16.0514914772727  C 19.2268629807692 16.3888494318182  19.3846153846154 16.795928030303  19.3846153846154 17.2727272727273  C 19.3846153846154 17.7495265151515  19.2268629807692 18.1566051136363  18.9113581730769 18.4939630681818  C 18.5958533653846 18.8313210227273  18.2151442307693 19  17.7692307692308 19  C 17.3233173076924 19  16.9426081730769 18.8313210227273  16.6271033653846 18.4939630681818  C 16.3115985576923 18.1566051136363  16.1538461538461 17.7495265151515  16.1538461538461 17.2727272727273  C 16.1538461538461 16.795928030303  16.3115985576923 16.3888494318182  16.6271033653846 16.0514914772727  C 16.9426081730769 15.7141335227273  17.3233173076924 15.5454545454545  17.7692307692308 15.5454545454545  C 18.2151442307693 15.5454545454545  18.5958533653846 15.7141335227273  18.9113581730769 16.0514914772727  Z M 20.7602163461539 1.98366477272726  C 20.9200721153846 2.15459280303028  21 2.35700757575755  21 2.59090909090906  L 21 9.5  C 21 9.71590909090906  20.9326923076924 9.90707859848482  20.7980769230769 10.0735085227273  C 20.6634615384615 10.2399384469697  20.490985576923 10.3366477272727  20.2806490384616 10.3636363636363  L 7.1051682692308 12.0099431818182  C 7.11358173076923 12.0729166666667  7.13251201923066 12.1696259469697  7.16195913461536 12.3000710227273  C 7.19140625000006 12.4305160984848  7.21664663461542 12.5497159090909  7.2376802884616 12.6576704545455  C 7.25871394230771 12.765625  7.2692307692308 12.8645833333333  7.2692307692308 12.9545454545455  C 7.2692307692308 13.0984848484848  7.1682692307692 13.3863636363637  6.96634615384608 13.8181818181818  L 18.5769230769231 13.8181818181818  C 18.7956730769233 13.8181818181818  18.9849759615385 13.9036458333333  19.1448317307692 14.0745738636363  C 19.3046874999999 14.2455018939394  19.3846153846154 14.4479166666667  19.3846153846154 14.6818181818182  C 19.3846153846154 14.9157196969697  19.3046874999999 15.118134469697  19.1448317307692 15.2890625  C 18.9849759615385 15.459990530303  18.7956730769233 15.5454545454545  18.5769230769231 15.5454545454545  L 5.65384615384608 15.5454545454545  C 5.43509615384602 15.5454545454545  5.24579326923066 15.459990530303  5.0859375 15.2890625  C 4.92608173076934 15.118134469697  4.84615384615392 14.9157196969697  4.84615384615392 14.6818181818182  C 4.84615384615392 14.5558712121212  4.89242788461539 14.3781960227273  4.9849759615384 14.1487926136363  C 5.07752403846149 13.9193892045455  5.20162259615378 13.6517518939394  5.35727163461536 13.3458806818182  C 5.51292067307702 13.040009469697  5.59915865384602 12.869081439394  5.61598557692312 12.8330965909091  L 3.3822115384616 1.72727272727274  L 0.807692307692321 1.72727272727274  C 0.588942307692435 1.72727272727274  0.399639423076735 1.64180871212123  0.239783653846075 1.47088068181821  C 0.0799278846154152 1.29995265151518  0 1.09753787878792  0 0.863636363636321  C 0 0.629734848484816  0.0799278846154152 0.427320075757553  0.239783653846075 0.256392045454532  C 0.399639423076735 0.0854640151515049  0.588942307692435 0  0.807692307692321 0  L 4.0384615384616 0  C 4.17307692307674 0  4.29296874999994 0.0292376893939578  4.3981370192308 0.0877130681817947  C 4.50330528846149 0.146188446969716  4.58743990384608 0.215909090909058  4.65054086538464 0.296875  C 4.71364182692312 0.377840909090942  4.76832932692326 0.488044507575758  4.81460336538464 0.627485795454532  C 4.86087740384602 0.766927083333311  4.89242788461539 0.886126893939426  4.90925480769232 0.985085227272737  C 4.92608173076934 1.08404356060604  4.94921874999994 1.21673768939396  4.97866586538464 1.38316761363632  C 5.00811298076934 1.54959753787877  5.02704326923077 1.66429924242424  5.0354567307692 2  L 20.1923076923077 2  C 20.4110576923076 1.72727272727274  20.6003605769233 1.81273674242424  20.7602163461539 1.98366477272726  Z " fill-rule="nonzero" fill="#04519a" stroke="none" transform="matrix(1 0 0 1 1141 77 )" />
  </g>
</svg>