<?xml version="1.0" encoding="utf-8"?>
<svg version="1.1" xmlns:xlink="http://www.w3.org/1999/xlink" width="64px" height="51px" xmlns="http://www.w3.org/2000/svg">
  <g transform="matrix(1 0 0 1 -993 -3727 )">
    <path d="M 54.8004956629493 29.1371784879188  C 54.8269310202395 29.190179267342  54.8401486988848 29.2696804364769  54 29.3756819953232  L 54 48.455962587685  C 54.8401486988848 49.1449727201871  54.5890128046262 49.7412314886983  54.086741016109 50.2447388932192  C 53.5844692275919 50.7482462977396  52.9896736885585 51  52.3023543990087 51  L 37 51  L 37 35  L 27 35  L 27 51  L 11.6976456009913 51  C 11.0103263114415 51  10.4155307724081 50.7482462977396  9.91325898389096 50.2447388932192  C 9.41098719537376 49.7412314886983  9.15985130111517 49.1449727201871  10 48.455962587685  L 10 29.3756819953232  C 9.15985130111517 29.3491816056116  9.16646014043795 29.3094310210445  9.17967781908305 29.2564302416213  C 9.19289549772816 29.2034294621981  9.19950433705071 29.1636788776304  9.19950433705071 29.1371784879188  L 32 10.2954014029619  L 54.8004956629493 29.1371784879188  Z M 63.9603469640645 25.6987529228372  C 63.9867823213549 26.0565081839441  63.8942585708385 26.3678877630555  63.6827757125154 26.6328916601715  L 61.2242874845106 29.5744349181605  C 61.0128046261875 29.8129384255649  60.7352333746385 29.9586905689789  60.3915737298637 30.0116913484021  L 60.2726146220571 30.0116913484021  C 59.928954977282 30.0116913484021  59.6513837257332 29.9189399844117  59.4399008674102 29.7334372564301  L 32 6.79734996102889  L 4.56009913258981 29.7334372564301  C 4.24287484510523 29.9454403741233  3.92565055762088 30.0381917381137  3.60842627013631 30.0116913484021  C 3.26476662536152 29.9586905689789  2.98719537381248 29.8129384255649  2.77571251548943 29.5744349181605  L 0.317224287484578 26.6328916601715  C 0.105741429161526 26.3678877630555  0.0132176786451055 26.0565081839441  0.0396530359355438 25.6987529228372  C 0.0660883932259821 25.3409976617304  0.211482858323052 25.0561184723306  0.475836431226753 24.8441153546378  L 28.9863692688971 1.03351519875287  C 29.8323007021893 0.344505066250804  30.8368442792234 0  32 0  C 33.1631557207766 0  34.1676992978109 0.344505066250804  35.0136307311029 1.03351519875287  L 44.6889714993804 9.14263445050665  L 44.6889714993804 1.3912704598597  C 44.6889714993804 1.02026500389729  44.807930607187 0.715510522213663  45.0458488228005 0.47700701480926  C 45.2837670384138 0.238503507404403  45.5877736472532 0.119251753702429  45.9578686493185 0.119251753702429  L 53.5712515489467 0.119251753702429  C 53.941346551012 0.119251753702429  54.2453531598512 0.238503507404403  54.4832713754647 0.47700701480926  C 54.721189591078 0.715510522213663  54.8401486988848 1.02026500389729  54 1.3912704598597  L 54 17.6095089633673  L 63.5241635687732 24.8441153546378  C 63.7885171416769 25.0561184723306  63.933911606774 25.3409976617304  63.9603469640645 25.6987529228372  Z " fill-rule="nonzero" fill="#ffffff" stroke="none" transform="matrix(1 0 0 1 993 3727 )" />
  </g>
</svg>