<?xml version="1.0" encoding="utf-8"?>
<svg version="1.1" xmlns:xlink="http://www.w3.org/1999/xlink" width="66px" height="42px" xmlns="http://www.w3.org/2000/svg">
  <g transform="matrix(1 0 0 1 -705 -3733 )">
    <path d="M 3.89583333333337 24.9230769230767  C 4.20138888888891 25.5384615384614  4.73611111111109 25.8461538461538  5.5 25.8461538461538  C 6.26388888888891 25.8461538461538  6.79861111111109 25.5384615384614  7.10416666666663 24.9230769230767  C 7.40972222222229 24.3076923076924  7.40972222222229 23.6923076923076  7.10416666666663 23.0769230769229  C 6.79861111111109 22.4615384615381  6.26388888888891 22.1538461538462  5.5 22.1538461538462  C 4.73611111111109 22.1538461538462  4.20138888888891 22.4615384615381  3.89583333333337 23.0769230769229  C 3.59027777777771 23.6923076923076  3.59027777777771 24.3076923076924  3.89583333333337 24.9230769230767  Z M 48.5690104166666 26.2932692307695  C 48.5021701388889 25.5336538461538  48.2109375 24.8269230769229  47.6953125 24.1730769230771  C 47.5043402777777 23.9230769230771  47.13671875 23.4423076923076  46.5924479166666 22.7307692307691  C 46.0481770833334 22.0192307692305  45.6519097222223 21.5  45.4036458333334 21.1730769230767  C 45.1553819444445 20.8461538461538  44.7925347222223 20.375  44.3151041666666 19.7596153846157  C 43.8376736111111 19.1442307692305  43.4318576388889 18.6346153846152  43.09765625 18.2307692307695  C 42.7634548611111 17.8269230769229  42.3767361111111 17.375  41.9375 16.875  C 41.4982638888889 16.375  41.0685763888889 15.9038461538462  40.6484375 15.4615384615381  L 37.0677083333334 19.5  C 35.4826388888889 21.3076923076924  33.4917534722223 22.1923076923076  31.0950520833334 22.1538461538462  C 28.6983506944445 22.1153846153848  26.7361111111111 21.1730769230767  25.2083333333334 19.3269230769233  C 24.1197916666666 18  23.5802951388889 16.4807692307695  23.58984375 14.7692307692305  C 23.5993923611111 13.0576923076924  24.1579861111111 11.5480769230767  25.265625 10.2403846153848  L 30.3359375 4.29807692307668  C 29.9157986111111 4.08653846153811  29.4288194444445 3.92788461538476  28.875 3.82211538461524  C 28.3211805555555 3.71634615384619  27.8676215277777 3.65865384615381  27.5143229166666 3.64903846153811  C 27.1610243055555 3.63942307692287  26.6215277777777 3.64423076923049  25.8958333333334 3.66346153846143  C 25.1701388888889 3.68269230769238  24.7022569444445 3.69230769230762  24.4921875 3.69230769230762  C 22.7352430555555 3.69230769230762  21.2265625 4.32692307692287  19.9661458333334 5.59615384615381  L 15.4401041666666 10.1538461538462  L 11 10.1538461538462  L 11 25.8461538461538  C 11.0954861111111 25.8461538461538  11.2960069444445 25.8413461538462  11.6015625 25.8317307692309  C 11.9071180555555 25.8221153846152  12.1171875 25.8221153846152  12.2317708333334 25.8317307692309  C 12.3463541666666 25.8413461538462  12.5325520833334 25.8605769230771  12.7903645833334 25.8894230769233  C 13.0481770833334 25.9182692307695  13.2439236111111 25.9615384615381  13.3776041666666 26.0192307692309  C 13.5112847222223 26.0769230769233  13.6783854166666 26.1586538461538  13.87890625 26.2644230769233  C 14.0794270833334 26.3701923076924  14.2560763888889 26.5  14.4088541666666 26.6538461538462  L 22.9166666666666 35.0769230769233  C 25.1128472222223 37.2115384615386  27.2803819444445 38.2788461538462  29.4192708333334 38.2788461538462  C 30.9088541666666 38.2788461538462  32.1024305555555 37.8269230769229  33 36.9230769230767  C 34.0885416666666 37.3076923076924  35.1627604166666 37.2307692307695  36.22265625 36.6923076923076  C 37.2825520833334 36.1538461538462  37.9748263888889 35.3365384615381  38.2994791666666 34.2403846153848  C 39.7126736111111 34.3557692307691  40.9253472222223 33.9326923076924  41.9375 32.9711538461538  C 42.3194444444445 32.625  42.6631944444445 32.1875  42.96875 31.6586538461538  C 43.2743055555555 31.1298076923076  43.4079861111111 30.6442307692309  43.3697916666666 30.2019230769233  C 43.5607638888889 30.3942307692309  43.9713541666666 30.4903846153848  44.6015625 30.4903846153848  C 45.4227430555555 30.4903846153848  46.1579861111111 30.2884615384619  46.8072916666666 29.8846153846152  C 47.4565972222223 29.4807692307691  47.9292534722223 28.9711538461543  48.2252604166666 28.3557692307691  C 48.5212673611111 27.7403846153843  48.6358506944445 27.0528846153843  48.5690104166666 26.2932692307695  Z M 50.53125 21.8076923076924  C 51.5243055555555 23.0769230769229  52.0972222222223 24.4230769230767  52.25 25.8461538461538  L 55 25.8461538461538  L 55 11.0769230769229  L 52.3359375 11.0769230769229  L 47.8385416666666 5.88461538461524  C 46.578125 4.42307692307713  44.9644097222223 3.69230769230762  42.9973958333334 3.69230769230762  L 38.2135416666666 3.69230769230762  C 36.5138888888889 3.69230769230762  35.1197916666666 4.33653846153857  34.03125 5.625  L 28.0442708333334 12.6346153846152  C 27.5095486111111 13.2692307692305  27.2421875 13.9903846153848  27.2421875 14.7980769230767  C 27.2421875 15.6057692307695  27.5 16.3269230769229  28.015625 16.9615384615381  C 28.8368055555555 17.9423076923076  29.8871527777777 18.4423076923076  31.1666666666666 18.4615384615386  C 32.4461805555555 18.4807692307695  33.5060763888889 18.0096153846157  34.3463541666666 17.0480769230767  L 39.875 10.7596153846152  C 40.3524305555555 10.3173076923076  40.86328125 10.1105769230771  41.4075520833334 10.1394230769233  C 41.9518229166666 10.1682692307695  42.4006076388889 10.4278846153843  42.75390625 10.9182692307691  C 43.1072048611111 11.4086538461538  43.1883680555555 11.9519230769229  42.9973958333334 12.5480769230771  C 43.3029513888889 12.9134615384614  43.8376736111111 13.5192307692305  44.6015625 14.3653846153843  C 45.3654513888889 15.2115384615381  45.9383680555555 15.8653846153848  46.3203125 16.3269230769229  C 46.8741319444445 17.0192307692305  47.6618923611111 18.0336538461543  48.68359375 19.3701923076924  C 49.7052951388889 20.7067307692305  50.3211805555555 21.5192307692309  50.53125 21.8076923076924  Z M 58.8958333333334 24.9230769230767  C 59.2013888888889 25.5384615384614  59.7361111111111 25.8461538461538  60.5 25.8461538461538  C 61.2638888888889 25.8461538461538  61.7986111111111 25.5384615384614  62.1041666666666 24.9230769230767  C 62.4097222222223 24.3076923076924  62.4097222222223 23.6923076923076  62.1041666666666 23.0769230769229  C 61.7986111111111 22.4615384615381  61.2638888888889 22.1538461538462  60.5 22.1538461538462  C 59.7361111111111 22.1538461538462  59.2013888888889 22.4615384615381  58.8958333333334 23.0769230769229  C 58.5902777777777 23.6923076923076  58.5902777777777 24.3076923076924  58.8958333333334 24.9230769230767  Z M 65.4557291666666 7.93269230769238  C 65.8185763888889 8.29807692307668  66 8.73076923076906  66 9.23076923076951  L 66 27.6923076923076  C 66 28.1923076923076  65.8185763888889 28.625  65.4557291666666 28.9903846153848  C 65.0928819444445 29.3557692307695  64.6631944444445 29.5384615384614  64.1666666666666 29  L 51.734375 29  C 51.21875 30.7884615384614  50.4357638888889 31.8125  49.3854166666666 32.6105769230771  C 48.3350694444445 33.4086538461538  47.1414930555555 33.9038461538462  45.8046875 34.0961538461538  C 45.1744791666666 35.0192307692309  44.4058159722223 35.8028846153843  43.4986979166666 36.4471153846152  C 42.5915798611111 37.0913461538457  41.6128472222223 37.5288461538457  40.5625 37.7596153846152  C 39.7604166666666 38.7788461538462  38.7625868055555 39.5625  37.5690104166666 40.1105769230771  C 36.3754340277777 40.6586538461538  35.1484375 40.8942307692309  33.8880208333334 40.8173076923076  C 32.7421875 41.4711538461538  31.5390625 41.8509615384619  30.2786458333334 41.9567307692305  C 29.0182291666666 42.0625  27.80078125 41.9278846153843  26.6263020833334 41.5528846153848  C 25.4518229166666 41.1778846153848  24.3346354166666 40.6634615384614  23.2747395833334 40.0096153846152  C 22.21484375 39.3557692307691  21.2265625 38.5769230769233  20.3098958333334 37.6730769230771  L 12.0885416666666 29  L 1.83333333333337 29  C 1.33680555555554 29.5384615384614  0.907118055555543 29.3557692307695  0.544270833333371 28.9903846153848  C 0.181423611111086 28.625  0 28.1923076923076  0 27.6923076923076  L 0 8.30769230769238  C 0 7.80769230769238  0.181423611111086 7.375  0.544270833333371 7.00961538461524  C 0.907118055555543 6.64423076923094  1.33680555555554 6.46153846153811  1.83333333333337 7  L 13.8932291666666 7  C 14.1605902777777 6.19230769230762  14.609375 5.73076923076951  15.2395833333334 5.07692307692332  C 15.8697916666666 4.42307692307713  16.3233506944445 3.96153846153857  16.6002604166666 3.69230769230762  C 16.8771701388889 3.42307692307668  17.2973090277777 3.03846153846143  17.8606770833334 2.53846153846143  C 18.4240451388889 2.03846153846189  18.90625 1.6778846153843  19.3072916666666 1.45673076923049  C 19.7083333333334 1.23557692307668  20.1953125 0.990384615384755  20.7682291666666 0.721153846153811  C 21.3411458333334 0.451923076923322  21.9331597222223 0.264423076923322  22.5442708333334 0.158653846153811  C 23.1553819444445 0.0528846153847553  23.8046875 0  24.4921875 0  L 27.84375 0  C 29.734375 0  31.4626736111111 0.538461538461888  33.0286458333334 1.61538461538476  C 34.5946180555555 0.538461538461888  36.3229166666666 0  38.2135416666666 0  L 42.9973958333334 0  C 43.6657986111111 0  44.3055555555555 0.0576923076923777  44.9166666666666 0.173076923076678  C 45.5277777777777 0.288461538461888  46.0672743055555 0.427884615384755  46.53515625 0.591346153846189  C 47.0030381944445 0.754807692307622  47.4947916666666 1.00961538461524  48.0104166666666 1.35576923076951  C 48.5260416666666 1.70192307692287  48.9509548611111 2  49.28515625 2.25  C 49.6193576388889 2.5  50.0299479166666 2.87980769230762  50.5169270833334 3.38942307692287  C 51.00390625 3.89903846153857  51.3763020833334 4.3028846153843  51.6341145833334 4.60096153846143  C 51.8919270833334 4.89903846153857  52.2834201388889 5.36057692307713  52.80859375 5.98557692307713  C 53.3337673611111 6.61057692307713  53.7300347222223 7.07692307692332  53.9973958333334 8  L 64.1666666666666 8  C 64.6631944444445 7.38461538461524  65.0928819444445 7.56730769230762  65.4557291666666 7.93269230769238  Z " fill-rule="nonzero" fill="#ffffff" stroke="none" transform="matrix(1 0 0 1 705 3733 )" />
  </g>
</svg>